<svg class="main-svg" xmlns="http://www.w3.org/2000/svg" xmlns:xlink="http://www.w3.org/1999/xlink" width="800" height="600" style=""><rect x="0" y="0" width="800" height="600" style="fill: rgb(255, 255, 255); fill-opacity: 1;"/><defs id="defs-79bef5"><g class="clips"><clipPath id="clip79bef5xyplot" class="plotclip"><rect width="729.9037620297463" height="542.2805482648002"/></clipPath><clipPath class="axesclip" id="clip79bef5x"><rect x="66.15923009623796" y="0" width="729.9037620297463" height="600"/></clipPath><clipPath class="axesclip" id="clip79bef5y"><rect x="0" y="23.674540682414673" width="800" height="542.2805482648002"/></clipPath><clipPath class="axesclip" id="clip79bef5xy"><rect x="66.15923009623796" y="23.674540682414673" width="729.9037620297463" height="542.2805482648002"/></clipPath></g><g class="gradients"/><g class="patterns"/></defs><g class="bglayer"/><g class="layer-below"><g class="imagelayer"/><g class="shapelayer"/></g><g class="cartesianlayer"><g class="subplot xy"><g class="layer-subplot"><g class="shapelayer"/><g class="imagelayer"/></g><g class="gridlayer"><g class="x"><path class="xgrid crisp" transform="translate(86.67923009623796,0)" d="M0,23.674540682414673v542.2805482648002" style="stroke: rgb(0, 0, 0); stroke-opacity: 0.1; stroke-width: 0.5px;"/><path class="xgrid crisp" transform="translate(224.42923009623797,0)" d="M0,23.674540682414673v542.2805482648002" style="stroke: rgb(0, 0, 0); stroke-opacity: 0.1; stroke-width: 0.5px;"/><path class="xgrid crisp" transform="translate(362.1692300962379,0)" d="M0,23.674540682414673v542.2805482648002" style="stroke: rgb(0, 0, 0); stroke-opacity: 0.1; stroke-width: 0.5px;"/><path class="xgrid crisp" transform="translate(499.9192300962379,0)" d="M0,23.674540682414673v542.2805482648002" style="stroke: rgb(0, 0, 0); stroke-opacity: 0.1; stroke-width: 0.5px;"/><path class="xgrid crisp" transform="translate(637.6592300962379,0)" d="M0,23.674540682414673v542.2805482648002" style="stroke: rgb(0, 0, 0); stroke-opacity: 0.1; stroke-width: 0.5px;"/><path class="xgrid crisp" transform="translate(775.4092300962379,0)" d="M0,23.674540682414673v542.2805482648002" style="stroke: rgb(0, 0, 0); stroke-opacity: 0.1; stroke-width: 0.5px;"/></g><g class="y"><path class="ygrid crisp" transform="translate(0,473.8945406824147)" d="M66.15923009623796,0h729.9037620297463" style="stroke: rgb(0, 0, 0); stroke-opacity: 0.1; stroke-width: 0.5px;"/><path class="ygrid crisp" transform="translate(0,348.4045406824147)" d="M66.15923009623796,0h729.9037620297463" style="stroke: rgb(0, 0, 0); stroke-opacity: 0.1; stroke-width: 0.5px;"/><path class="ygrid crisp" transform="translate(0,222.90454068241468)" d="M66.15923009623796,0h729.9037620297463" style="stroke: rgb(0, 0, 0); stroke-opacity: 0.1; stroke-width: 0.5px;"/><path class="ygrid crisp" transform="translate(0,97.41454068241467)" d="M66.15923009623796,0h729.9037620297463" style="stroke: rgb(0, 0, 0); stroke-opacity: 0.1; stroke-width: 0.5px;"/></g></g><g class="zerolinelayer"/><path class="xlines-below"/><path class="ylines-below"/><g class="overlines-below"/><g class="xaxislayer-below"/><g class="yaxislayer-below"/><g class="overaxes-below"/><g class="plot" transform="translate(66.15923009623796,23.674540682414673)" clip-path="url(#clip79bef5xyplot)"><g class="scatterlayer mlayer"><g class="trace scatter trace3564eb" style="stroke-miterlimit: 2; opacity: 1;"><g class="fills"/><g class="errorbars"/><g class="lines"><path class="js-line" d="M20.66,199.23L579.49,198.51L579.63,198.42L580.87,198.26L581.01,198.3L581.69,198.53L581.83,198.34L581.97,198.16L583.62,198.05L583.76,198.22L584.17,198.12L584.31,197.88L584.45,197.66L584.86,197.79L585,198L585.14,198.12L585.96,197.1L586.1,197.36L586.24,197.71L586.52,198.06L586.79,197.33L586.93,196.73L587.2,196.07L587.48,196.87L587.62,197.59L587.89,198.32L588.17,197.02L588.31,195.86L588.58,194.26L588.86,195.36L588.99,196.77L589.41,199.16L589.68,196.23L589.82,193.95L590.1,190.92L590.37,192.93L590.51,195.6L590.92,201.43L591.2,197.49L591.34,193.56L591.75,185.42L592.02,189.95L592.16,194.54L592.58,203.83L592.85,198.52L592.99,193.22L593.4,181.65L593.82,189.56L593.95,193.67L594.23,196.7L594.5,191L594.64,187.03L594.78,184.43L595.06,188.43L595.19,195.49L595.74,219.23L595.88,212.92L596.02,199.86L596.57,133.16L596.85,148.07L596.98,177.67L598.09,526.93L598.36,487.87L598.5,444.8L600.01,15.35L600.15,20.02L600.29,29.31L602.63,194.15L602.77,196.14L604.01,202.27L604.15,202.35L605.66,201.82L605.8,201.75L609.93,200.24L610.07,200.21L617.09,199.47L617.23,199.46L644.23,199.24L644.37,199.24L709.25,199.23" style="vector-effect: non-scaling-stroke; fill: none; stroke: rgb(0, 154, 250); stroke-opacity: 1; stroke-width: 1px; opacity: 1;"/></g><g class="points"/><g class="text"/></g></g></g><g class="overplot"/><path class="xlines-above crisp" d="M65.15923009623796,566.4550889472149H796.0629921259842" style="fill: none; stroke-width: 1px; stroke: rgb(0, 0, 0); stroke-opacity: 1;"/><path class="ylines-above crisp" d="M65.65923009623796,23.674540682414673V565.9550889472149" style="fill: none; stroke-width: 1px; stroke: rgb(0, 0, 0); stroke-opacity: 1;"/><g class="overlines-above"/><g class="xaxislayer-above"><path class="xtick ticks crisp" d="M0,565.9550889472149v-5" transform="translate(86.67923009623796,0)" style="stroke: rgb(0, 0, 0); stroke-opacity: 1; stroke-width: 1px;"/><path class="xtick ticks crisp" d="M0,565.9550889472149v-5" transform="translate(224.42923009623797,0)" style="stroke: rgb(0, 0, 0); stroke-opacity: 1; stroke-width: 1px;"/><path class="xtick ticks crisp" d="M0,565.9550889472149v-5" transform="translate(362.1692300962379,0)" style="stroke: rgb(0, 0, 0); stroke-opacity: 1; stroke-width: 1px;"/><path class="xtick ticks crisp" d="M0,565.9550889472149v-5" transform="translate(499.9192300962379,0)" style="stroke: rgb(0, 0, 0); stroke-opacity: 1; stroke-width: 1px;"/><path class="xtick ticks crisp" d="M0,565.9550889472149v-5" transform="translate(637.6592300962379,0)" style="stroke: rgb(0, 0, 0); stroke-opacity: 1; stroke-width: 1px;"/><path class="xtick ticks crisp" d="M0,565.9550889472149v-5" transform="translate(775.4092300962379,0)" style="stroke: rgb(0, 0, 0); stroke-opacity: 1; stroke-width: 1px;"/><g class="xtick"><text text-anchor="middle" x="0" y="580.155088947215" transform="translate(86.67923009623796,0)" style="font-family: sans-serif; font-size: 11px; fill: rgb(0, 0, 0); fill-opacity: 1; white-space: pre; opacity: 1;">0</text></g><g class="xtick"><text text-anchor="middle" x="0" y="580.155088947215" style="font-family: sans-serif; font-size: 11px; fill: rgb(0, 0, 0); fill-opacity: 1; white-space: pre; opacity: 1;" transform="translate(224.42923009623797,0)">1000</text></g><g class="xtick"><text text-anchor="middle" x="0" y="580.155088947215" style="font-family: sans-serif; font-size: 11px; fill: rgb(0, 0, 0); fill-opacity: 1; white-space: pre; opacity: 1;" transform="translate(362.1692300962379,0)">2000</text></g><g class="xtick"><text text-anchor="middle" x="0" y="580.155088947215" style="font-family: sans-serif; font-size: 11px; fill: rgb(0, 0, 0); fill-opacity: 1; white-space: pre; opacity: 1;" transform="translate(499.9192300962379,0)">3000</text></g><g class="xtick"><text text-anchor="middle" x="0" y="580.155088947215" style="font-family: sans-serif; font-size: 11px; fill: rgb(0, 0, 0); fill-opacity: 1; white-space: pre; opacity: 1;" transform="translate(637.6592300962379,0)">4000</text></g><g class="xtick"><text text-anchor="middle" x="0" y="580.155088947215" style="font-family: sans-serif; font-size: 11px; fill: rgb(0, 0, 0); fill-opacity: 1; white-space: pre; opacity: 1;" transform="translate(775.4092300962379,0)">5000</text></g></g><g class="yaxislayer-above"><path class="ytick ticks crisp" d="M66.15923009623796,0h5" transform="translate(0,473.8945406824147)" style="stroke: rgb(0, 0, 0); stroke-opacity: 1; stroke-width: 1px;"/><path class="ytick ticks crisp" d="M66.15923009623796,0h5" transform="translate(0,348.4045406824147)" style="stroke: rgb(0, 0, 0); stroke-opacity: 1; stroke-width: 1px;"/><path class="ytick ticks crisp" d="M66.15923009623796,0h5" transform="translate(0,222.90454068241468)" style="stroke: rgb(0, 0, 0); stroke-opacity: 1; stroke-width: 1px;"/><path class="ytick ticks crisp" d="M66.15923009623796,0h5" transform="translate(0,97.41454068241467)" style="stroke: rgb(0, 0, 0); stroke-opacity: 1; stroke-width: 1px;"/><g class="ytick"><text text-anchor="end" x="62.95923009623796" y="3.8499999999999996" transform="translate(0,473.8945406824147)" style="font-family: sans-serif; font-size: 11px; fill: rgb(0, 0, 0); fill-opacity: 1; white-space: pre; opacity: 1;">-0.0010</text></g><g class="ytick"><text text-anchor="end" x="62.95923009623796" y="3.8499999999999996" style="font-family: sans-serif; font-size: 11px; fill: rgb(0, 0, 0); fill-opacity: 1; white-space: pre; opacity: 1;" transform="translate(0,348.4045406824147)">-0.0005</text></g><g class="ytick"><text text-anchor="end" x="62.95923009623796" y="3.8499999999999996" style="font-family: sans-serif; font-size: 11px; fill: rgb(0, 0, 0); fill-opacity: 1; white-space: pre; opacity: 1;" transform="translate(0,222.90454068241468)">0.0000</text></g><g class="ytick"><text text-anchor="end" x="62.95923009623796" y="3.8499999999999996" style="font-family: sans-serif; font-size: 11px; fill: rgb(0, 0, 0); fill-opacity: 1; white-space: pre; opacity: 1;" transform="translate(0,97.41454068241467)">0.0005</text></g></g><g class="overaxes-above"/></g></g><g class="polarlayer"/><g class="ternarylayer"/><g class="geolayer"/><g class="funnelarealayer"/><g class="pielayer"/><g class="iciclelayer"/><g class="treemaplayer"/><g class="sunburstlayer"/><g class="glimages"/><defs id="topdefs-79bef5"><g class="clips"/><clipPath id="legend79bef5"><rect width="57" height="29" x="1" y="1"/></clipPath></defs><g class="layer-above"><g class="imagelayer"/><g class="shapelayer"/></g><g class="infolayer"><g class="legend" pointer-events="all" transform="translate(741,20)"><rect class="bg" shape-rendering="crispEdges" width="58" height="30" x="0.5" y="0.5" style="stroke: rgb(0, 0, 0); stroke-opacity: 1; fill: rgb(255, 255, 255); fill-opacity: 1; stroke-width: 1px;"/><g class="scrollbox" transform="" clip-path="url(#legend79bef5)"><g class="groups"><g class="traces" transform="translate(1,15.5)" style="opacity: 1;"><text class="legendtext" text-anchor="start" x="40" y="4.29" style="font-family: sans-serif; font-size: 11px; fill: rgb(0, 0, 0); fill-opacity: 1; white-space: pre;">y1</text><g class="layers" style="opacity: 1;"><g class="legendfill"/><g class="legendlines"><path class="js-line" d="M5,0h30" style="fill: none; stroke: rgb(0, 154, 250); stroke-opacity: 1; stroke-width: 1px;"/></g><g class="legendsymbols"><g class="legendpoints"/></g></g><rect class="legendtoggle" x="0" y="-9.5" width="51.625" height="19" style="fill: rgb(0, 0, 0); fill-opacity: 0;"/></g></g></g><rect class="scrollbar" rx="20" ry="3" width="0" height="0" x="0" y="0" style="fill: rgb(128, 139, 164); fill-opacity: 1;"/></g><g class="g-gtitle"/><g class="g-xtitle"/><g class="g-ytitle"/></g></svg>